
        <svg xmlns="http://www.w3.org/2000/svg" xmlns:xlink="http://www.w3.org/1999/xlink" version="1.1" width="3142.288580834872" 
        height="587.2973806329799" viewBox="0 0 3142.288580834872 587.2973806329799">
			<rect fill="#004a7c" width="3142.288580834872" height="587.2973806329799"/>
			<g transform="scale(7.114429041743604) translate(10, 10)">
				<defs id="SvgjsDefs5660"></defs><g id="SvgjsG5661" featureKey="nameLeftFeature-0" transform="matrix(1.8471594304305823,0,0,1.8471594304305823,-0.16140995093515223,6.639914650412898)" fill="#ffffff"><path d="M12.909 19.6882 c0.089004 0 0.15762 0.064804 0.15762 0.15801 c0 0.089004 -0.069004 0.15381 -0.15801 0.15381 l-4.5034 0 c-0.089004 0 -0.15801 -0.064804 -0.15801 -0.15381 c0 -0.093204 0.069004 -0.15801 0.15801 -0.15801 l0.72 0 c0.402 0 0.62738 -0.303 0.47998 -0.7 l-1.239 -3.249 l-5.1044 0 l-1.2558 3.249 c-0.14 0.3616 0.08039 0.7 0.48 0.7 l0.72 0 c0.089004 0 0.15801 0.064804 0.15801 0.15801 c0 0.089004 -0.069004 0.15381 -0.15801 0.15381 l-2.9606 0 c-0.089004 0 -0.15801 -0.064804 -0.15801 -0.15381 c0 -0.093204 0.069004 -0.15801 0.15801 -0.15801 l0.48 0 c0.52 0 0.7558 -0.26 0.92 -0.7 l4.7614 -12.241 l0.37801 0 l4.7042 12.261 c0.1442 0.36 0.42 0.68 0.98 0.68 l0.44 0 z M3.3868 15.4316 l4.8658 0 l-2.4148 -6.332 z M18.1462 20.129 c-2.3166 0 -4.0752 -1.3068 -4.0752 -2.8026 c0 -0.7228 0.391 -1.1594 0.87298 -1.1594 c0.3704 0 0.8042 0.2456 0.8042 0.7642 c0 0.649 -0.7158 0.771 -0.7158 1.271 c0 0.9118 1.7248 1.5794 2.9482 1.5794 c1.9634 0 3.5116 -1.0248 3.5116 -2.8716 c0 -3.653 -7.129 -2.3648 -7.129 -6.904 c0 -1.7704 1.4062 -3.3146 4.1862 -3.3146 c2.2338 0 4.038 1.2214 4.038 2.7008 c0 0.7352 -0.391 1.1758 -0.869 1.1758 c-0.3744 0 -0.8082 -0.2496 -0.8082 -0.7682 c0 -0.6656 0.7118 -0.7546 0.7118 -1.2546 c0 -0.8994 -1.7248 -1.5062 -2.944 -1.5062 c-1.52 0 -3.1614 0.5406 -3.1614 2.5212 c0 3.2952 7.3276 2.1958 7.3276 6.9206 c0 1.6172 -1.4186 3.6482 -4.698 3.6482 z M28.906200000000002 20.129 c-2.3166 0 -4.0752 -1.3068 -4.0752 -2.8026 c0 -0.7228 0.391 -1.1594 0.87298 -1.1594 c0.3704 0 0.8042 0.2456 0.8042 0.7642 c0 0.649 -0.7158 0.771 -0.7158 1.271 c0 0.9118 1.7248 1.5794 2.9482 1.5794 c1.9634 0 3.5116 -1.0248 3.5116 -2.8716 c0 -3.653 -7.129 -2.3648 -7.129 -6.904 c0 -1.7704 1.4062 -3.3146 4.1862 -3.3146 c2.2338 0 4.038 1.2214 4.038 2.7008 c0 0.7352 -0.391 1.1758 -0.869 1.1758 c-0.3744 0 -0.8082 -0.2496 -0.8082 -0.7682 c0 -0.6656 0.7118 -0.7546 0.7118 -1.2546 c0 -0.8994 -1.7248 -1.5062 -2.944 -1.5062 c-1.52 0 -3.1614 0.5406 -3.1614 2.5212 c0 3.2952 7.3276 2.1958 7.3276 6.9206 c0 1.6172 -1.4186 3.6482 -4.698 3.6482 z M46.814 6.82 c0.093204 0 0.15809 0.064844 0.15809 0.15385 c0 0.093008 -0.064804 0.15781 -0.15801 0.15781 l-0.51801 0 c-0.2972 0 -0.48202 0.229 -0.48202 0.478 l0 7.6876 c0 3.5856 -2.1406 4.8318 -4.6296 4.8318 c-2.0366 0 -4.7248 -0.878 -4.7248 -4.8952 l0 -7.6242 c0 -0.249 -0.1848 -0.478 -0.48202 -0.478 l-0.51801 0 c-0.093008 0 -0.15781 -0.064804 -0.15781 -0.15381 c0 -0.093204 0.064804 -0.15801 0.15781 -0.15801 l3.7028 0 c0.093008 0 0.15781 0.064804 0.15781 0.15801 c0 0.089004 -0.064804 0.15381 -0.15781 0.15381 l-0.51801 0 c-0.2972 0 -0.48202 0.229 -0.48202 0.478 l0 7.9076 c0 3.1476 1.5538 4.1496 3.4386 4.1496 c2.0592 0 3.8682 -1.1882 3.8682 -4.324 l0 -7.7332 c0 -0.249 -0.1848 -0.478 -0.48202 -0.478 l-0.51801 0 c-0.093008 0 -0.15781 -0.064804 -0.15781 -0.15781 c0 -0.089004 0.064804 -0.15381 0.15781 -0.15381 l2.3448 0 z M58.936 19.1628 c0.084804 0 0.13701 0.060606 0.13701 0.14121 c0 0.2382 -0.7188 0.82282 -1.6434 0.82282 c-3.9444 0 -0.1292 -6.491 -5.642 -6.491 l-0.70439 0 l0 5.589 c0 0.2436 0.1898 0.4636 0.48122 0.4636 l0.51801 0 c0.093008 0 0.15781 0.064804 0.15781 0.15381 c0 0.093204 -0.064804 0.15801 -0.15781 0.15801 l-3.702 0 c-0.093008 0 -0.15781 -0.064804 -0.15781 -0.15801 c0 -0.089004 0.064804 -0.15381 0.15781 -0.15381 l0.51801 0 c0.2906 0 0.48122 -0.2178 0.48122 -0.4618 l0 -11.631 c0 -0.2444 -0.1898 -0.4634 -0.48122 -0.4634 l-0.51801 0 c-0.093008 0 -0.15781 -0.064804 -0.15781 -0.15381 c0 -0.093204 0.064804 -0.15801 0.15781 -0.15801 l4.3834 0 c2.651 0 4.442 1.042 4.442 3.162 c0 1.87 -1.4616 3.1526 -3.9212 3.472 c5.22 0.72 2.6854 6.175 4.6562 6.175 c0.6186 0 0.802 -0.4662 0.9952 -0.4662 z M51.083 13.32 l1.0738 0.00019531 c2.4718 0 3.269 -1.758 3.269 -3.3132 c0 -1.7808 -0.8594 -2.8752 -3.1138 -2.8752 l-0.74779 0 c-0.2906 0 -0.48122 0.219 -0.48122 0.4618 l0 5.7264 z M66.15440000000001 6.695 c3.7924 0 5.998 2.8256 5.998 6.6456 s-2.2056 6.7882 -5.998 6.7882 c-3.7966 0 -5.998 -2.9682 -5.998 -6.7882 s2.2014 -6.6456 5.998 -6.6456 z M66.15440000000001 19.78558 c3.0958 0 4.1888 -3.0848 4.1888 -6.4448 s-1.093 -6.302 -4.1888 -6.302 s-4.1888 2.942 -4.1888 6.302 s1.093 6.4448 4.1888 6.4448 z M84.98100000000001 6.82 c0.093204 0 0.15803 0.064454 0.15803 0.15346 c0 0.093008 -0.064804 0.15781 -0.15781 0.15781 l-0.51801 0 c-0.2972 0 -0.48202 0.229 -0.48202 0.478 l0 12.39 l-0.7918 0 l-7.8248 -11.482 l0 10.692 c0 0.249 0.1848 0.478 0.48202 0.478 l0.51801 0 c0.093204 0 0.15801 0.064804 0.15801 0.15801 c0 0.089004 -0.064804 0.15381 -0.15801 0.15381 l-2.3448 0 c-0.093008 0 -0.15781 -0.064804 -0.15781 -0.15381 c0 -0.093204 0.064804 -0.15801 0.15781 -0.15801 l0.51801 0 c0.2972 0 0.48202 -0.229 0.48202 -0.478 l0 -11.601 c0 -0.249 -0.1848 -0.478 -0.48202 -0.478 l-0.51801 0 c-0.093008 0 -0.15781 -0.064804 -0.15781 -0.15781 c0 -0.089004 0.064804 -0.15381 0.15781 -0.15381 l2.1806 0 l7.4358 10.908 l0 -10.118 c0 -0.249 -0.1848 -0.478 -0.48202 -0.478 l-0.51801 0 c-0.093204 0 -0.15801 -0.064804 -0.15801 -0.15781 c0 -0.089004 0.064804 -0.15381 0.15801 -0.15381 l2.3448 0 z M95.38900000000001 16.3572 c0.089004 0 0.154 0.065234 0.154 0.15844 l0 3.4848 l-9.002 0 c-0.093008 0 -0.15781 -0.064804 -0.15781 -0.15801 c0 -0.089004 0.064804 -0.15381 0.15781 -0.15381 l0.51801 0 c0.2906 0 0.48122 -0.219 0.48122 -0.4618 l0 -11.631 c0 -0.2436 -0.1898 -0.4636 -0.48122 -0.4636 l-0.51801 0 c-0.093008 0 -0.15781 -0.064804 -0.15781 -0.15381 c0 -0.093204 0.064804 -0.15801 0.15781 -0.15801 l8.9234 0 l0 3.4848 c0 0.093204 -0.064804 0.15801 -0.15781 0.15801 c-0.089004 0 -0.15381 -0.064804 -0.15381 -0.15801 l0 -0.80961 c0 -1.38 -0.82 -2.3634 -2.46 -2.3634 l-2.9678 0 c-0.2906 0 -0.48122 0.2178 -0.48122 0.4618 l0 5.3726 l1.5878 0 c1.6304 0 1.811 -0.5676 1.811 -1.4958 l0 -0.18279 c0 -0.089004 0.069004 -0.15801 0.15801 -0.15801 s0.15801 0.069004 0.15801 0.15801 l0 3.6772 c0 0.089004 -0.069004 0.15801 -0.15801 0.15801 s-0.15801 -0.064804 -0.15801 -0.17041 l0 -0.19859 c0 -0.8918 -0.1724 -1.4676 -1.811 -1.4676 l-1.5878 0 l0 5.9386 c0 0.2444 0.1898 0.4634 0.48122 0.4634 l3.0462 0 c1.64 0 2.46 -0.9834 2.46 -2.3634 l0 -0.80961 c0 -0.093204 0.064804 -0.15801 0.15781 -0.15801 z"></path></g><g id="SvgjsG5662" featureKey="inlineSymbolFeature-0" transform="matrix(0.7824499298417938,0,0,0.7824499298417938,190.0249980532615,-8.195362638396444)" fill="#d7e2fc"><path xmlns="http://www.w3.org/2000/svg" d="M72.5,59.6c0.8,1.7,1.6,3.4,2.3,5.2c1.5,3.5,2.7,7.1,3.3,10.9c0.4,2.3,0.5,4.6-0.2,6.9c-0.7,2.4-2.5,3.7-5,3.7  c-2.3,0-4.3-0.8-6.3-1.8c-1.7-0.9-3.4-2-5.1-3.1c-0.7-0.5-1.3-0.6-2.2-0.3c-2.7,1-5.7-1.7-5.3-4.5c0.2-1.2,0.1-1.4-1-2.2  c-0.1,0.2-0.3,0.4-0.4,0.6c-2.4,3.5-5,6.9-8,9.9c-1.9,1.8-3.9,3.6-6.3,4.7c-1.2,0.5-2.4,0.9-3.7,0.8c-2-0.1-3.3-1.3-4.1-2.9  c-0.9-1.7-1.2-3.6-1.4-5.5c-0.4-5.3,0.4-10.4,1.6-15.5c0.1-0.4,0.2-0.8,0.3-1.3c-0.2,0-0.4-0.1-0.6-0.1c-4.7-0.2-9.4-0.8-14-2.1  c-2.1-0.6-4.1-1.4-5.9-2.7c-0.5-0.4-1-0.8-1.4-1.2c-1.7-1.9-1.9-4-0.7-6.2c1.1-1.9,2.7-3.3,4.5-4.5c1.7-1.1,3.5-2.1,5.3-3.1  c0.4-0.2,0.5-0.4,0.6-0.9c0.1-1.7,0.9-2.9,2.5-3.6c1.6-0.7,3.1-0.5,4.4,0.6c0.5,0.4,0.9,0.5,1.5,0.3c0.3-0.2,0.7-0.3,1.1-0.3  c0.4-0.1,0.5-0.3,0.3-0.7c-1.6-3.2-3-6.5-4.1-10c-0.9-2.8-1.6-5.7-1.7-8.7c0-1.3,0.1-2.6,0.5-3.8c0.8-2.7,3.1-4.1,6-3.7  c3,0.4,5.6,1.8,8.2,3.3c3.7,2.3,6.9,5.1,10.1,8c0.2,0.2,0.4,0.4,0.6,0.6c0.9-1.2,1.7-2.4,2.6-3.6c2.3-3.1,4.8-6,7.7-8.5  c1.7-1.4,3.4-2.7,5.5-3.4c0.9-0.3,1.8-0.5,2.7-0.4c2.6,0.1,3.9,1.9,4.7,4.1c0.7,2,0.9,4,0.9,6.1c0,1.6-0.1,3.2-0.2,4.7  c0,0.2,0.2,0.5,0.4,0.6c1,0.6,1.6,1.5,1.9,2.6c0.6,2.2-0.8,4.5-3,5.1c-0.5,0.1-0.8,0.3-0.8,0.8c0,0.2-0.1,0.4-0.2,0.6  c-0.2,0.6-0.1,0.6,0.5,0.6c4,0.2,7.9,0.6,11.8,1.5c2.7,0.6,5.3,1.5,7.7,3c1.3,0.8,2.4,1.8,3,3.2c0.6,1.5,0.5,2.9-0.3,4.3  c-1,1.8-2.4,3.2-4,4.4c-3.2,2.4-6.8,4.1-10.6,5.5C76.5,58.2,74.5,58.9,72.5,59.6z M24.6,20.3c0.1,1.7,0.4,3.3,0.9,4.9  c1.4,5,3.6,9.7,6,14.4c0.2,0.4,0.5,0.4,0.9,0.3c2.8-0.7,5.7-1.3,8.5-2c0.3-0.1,0.6-0.3,0.7-0.6c1.5-2.7,3-5.4,4.6-8.1  c0.2-0.4,0.2-0.6-0.1-0.9c-2-1.9-3.9-3.8-5.9-5.6c-2.4-2.1-4.8-4-7.7-5.5c-1.4-0.7-2.7-1.3-4.3-1.4c-1.5-0.1-2.6,0.6-3.1,1.9  C24.8,18.6,24.7,19.4,24.6,20.3z M71.1,38.5c-0.3,0-0.8,0-1.2,0c-0.4,0-0.5,0.2-0.7,0.5c-1,3-1.9,6-2.9,9c-0.1,0.4-0.1,0.7,0.1,1.1  c1.4,2.4,2.9,4.8,4.3,7.2c0.3,0.5,0.5,0.6,1,0.4c3-1,6-1.9,9-3c3-1.1,5.9-2.5,8.5-4.4c1-0.7,1.8-1.5,2.5-2.5  c0.8-1.4,0.7-2.7-0.4-3.8c-0.2-0.2-0.5-0.4-0.7-0.6c-1.3-0.9-2.8-1.5-4.3-1.9C81.2,39,76.2,38.7,71.1,38.5z M31.3,81.7  c0,0.6,0.1,1.6,0.2,2.7c0.2,1.1,0.5,2.2,1.2,3.1c0.7,0.9,1.6,1.2,2.6,1.1c1.3-0.1,2.4-0.8,3.4-1.5c2.1-1.5,3.9-3.5,5.5-5.4  c2.4-2.9,4.5-6,6.6-9.2c0.2-0.3,0.2-0.5,0-0.7c-2-2.3-4.1-4.6-6.1-6.8c-0.2-0.2-0.5-0.3-0.7-0.3c-3.1,0.1-6.1,0.2-9.2,0.3  c-0.5,0-0.8,0.1-0.9,0.6c-0.4,1.6-0.8,3.2-1.2,4.8C31.9,74,31.4,77.6,31.3,81.7z M76.6,80.4c-0.1-2-0.4-3.7-0.9-5.4  c-1.4-5-3.6-9.7-6-14.2c-0.2-0.3-0.4-0.3-0.7-0.3c-2.9,0.7-5.8,1.3-8.7,2c-0.2,0.1-0.5,0.2-0.6,0.4c-1.6,2.8-3.1,5.6-4.7,8.3  c-0.2,0.3-0.1,0.5,0.1,0.7c0.3,0.3,0.6,0.6,0.9,0.9c0.2,0.3,0.5,0.3,0.8,0.2c0.5-0.2,1-0.3,1.5-0.4c2.2-0.2,5,2.2,4.1,5.2  c-0.2,0.6,0,1,0.4,1.3c1.3,0.9,2.5,1.8,3.7,2.7c1.7,1.2,3.6,2.1,5.6,2.6c2.2,0.5,3.8-0.5,4.2-2.7C76.6,81.2,76.6,80.7,76.6,80.4z   M29.9,61.9c0.5,0,1.1,0,1.6,0c0.3,0,0.5-0.1,0.5-0.4c1-3.1,2-6.2,3-9.3c0.1-0.2,0-0.5-0.1-0.7c-1.5-2.6-3-5.1-4.5-7.7  c-0.2-0.3-0.3-0.3-0.6-0.3c-0.6,0.2-1.2,0.3-1.8,0.5c-0.5,0.1-0.9,0.4-0.9,1c-0.1,1-0.6,1.8-1.3,2.4c-1.7,1.4-3.9,1.4-5.6-0.1  c-0.2-0.2-0.4-0.4-0.8-0.2c-2.5,1.1-4.9,2.2-7.1,3.8c-1.1,0.8-2,1.6-2.7,2.8c-0.8,1.4-0.6,2.7,0.5,3.8c0.5,0.5,1.1,0.9,1.6,1.2  c1.6,0.9,3.4,1.4,5.3,1.8C21.3,61.5,25.6,61.7,29.9,61.9z M64.1,35.4C64.1,35.5,64.1,35.5,64.1,35.4c0.9,0.1,1.7,0,2.5,0.1  c0.3,0,0.5-0.1,0.5-0.4c0.1-0.6,0.3-1.1,0.5-1.7c0.1-0.4,0-0.6-0.3-0.9c-2.5-2-1.7-6.2,1.5-7.1c0.4-0.1,0.5-0.3,0.6-0.7  c0.3-2.7,0.6-5.4,0.3-8.1c-0.1-1.3-0.4-2.5-1.1-3.6c-0.7-1-1.7-1.5-2.9-1.3c-1,0.2-1.9,0.6-2.7,1.2c-1.7,1.1-3.1,2.5-4.4,3.9  c-3.2,3.4-5.8,7.2-8.3,11.1c-0.2,0.3-0.1,0.5,0.1,0.8c1.9,2.1,3.7,4.1,5.5,6.2c0.5,0.6,1,0.9,1.8,0.8C59.9,35.6,62,35.5,64.1,35.4z   M46.1,61.3c1.3-0.2,2.6-0.3,3.8-0.4c2.5-0.3,5-0.7,7.5-1c0.4,0,0.6-0.2,0.7-0.5c1.5-3.3,2.9-6.6,4.4-10c0.1-0.2,0-0.6-0.1-0.8  c-0.5-0.8-1-1.6-1.6-2.3c-1.5-2-3-4.1-4.4-6.1c-0.5-0.8-1.2-1.1-2.2-1c-1.7,0.2-3.5,0.4-5.2,0.6c-1.6,0.2-3.1,0.5-4.7,0.7  c-0.4,0.1-0.7,0.1-0.9,0.5c-1.5,3.3-3,6.7-4.4,10c-0.1,0.2-0.1,0.6,0.1,0.7c2.2,3.1,4.5,6.1,6.7,9.2C45.7,61.2,46,61.3,46.1,61.3z   M37.3,55.1c-0.8,2.3-1.5,4.5-2.3,6.9c2.4-0.1,4.7-0.2,7.1-0.3C40.4,59.4,38.9,57.3,37.3,55.1z M64,45.3c0.8-2.3,1.5-4.5,2.3-6.8  c-2.4,0.1-4.7,0.2-7.1,0.3C60.8,41,62.4,43.1,64,45.3z M52.7,69.4c1.1-2.1,2.2-4.1,3.4-6.1c-2.7,0.4-5.2,0.7-7.8,1  C49.7,66,51.2,67.7,52.7,69.4z M48.5,31c-1.1,2.1-2.2,4.1-3.4,6.1c2.7-0.3,5.2-0.7,7.8-1C51.5,34.4,50.1,32.7,48.5,31z M39.5,41.4  c-0.1,0-0.2,0-0.3,0c-1.8,0.4-3.6,0.8-5.4,1.2c-0.4,0.1-0.5,0.2-0.3,0.6c0.9,1.5,1.9,3.1,2.8,4.6c0.1,0.1,0.2,0.2,0.3,0.3  C37.6,45.9,38.5,43.7,39.5,41.4z M64.7,52.2c-1,2.3-2,4.6-3,6.9c2.1-0.5,4.2-0.9,6.3-1.4C66.9,55.8,65.8,54,64.7,52.2z"></path><path xmlns="http://www.w3.org/2000/svg" d="M43.7,50.2c0-3.8,3.1-6.9,6.9-6.9c3.9,0,7,3.1,7,7c0,3.9-3,6.9-6.9,6.9C46.4,57.2,43.7,53.9,43.7,50.2z"></path></g><g id="SvgjsG5663" featureKey="nameRightFeature-0" transform="matrix(1.8470976875007428,0,0,1.8470976875007428,274.2680677055341,6.641252600197948)" fill="#ffffff"><path d="M17.549 19.6882 c0.089004 0 0.15762 0.064804 0.15762 0.15801 c0 0.089004 -0.069004 0.15381 -0.15801 0.15381 l-4.5034 0 c-0.089004 0 -0.15801 -0.064804 -0.15801 -0.15381 c0 -0.093204 0.069004 -0.15801 0.15801 -0.15801 l0.72 0 c0.402 0 0.62738 -0.303 0.47998 -0.7 l-1.239 -3.249 l-5.1044 0 l-1.2558 3.249 c-0.14 0.3616 0.08039 0.7 0.48 0.7 l0.72 0 c0.089004 0 0.15801 0.064804 0.15801 0.15801 c0 0.089004 -0.069004 0.15381 -0.15801 0.15381 l-2.9606 0 c-0.089004 0 -0.15801 -0.064804 -0.15801 -0.15381 c0 -0.093204 0.069004 -0.15801 0.15801 -0.15801 l0.48 0 c0.52 0 0.7558 -0.26 0.92 -0.7 l4.7614 -12.241 l0.37801 0 l4.7042 12.261 c0.1442 0.36 0.42 0.68 0.98 0.68 l0.44 0 z M8.0268 15.4316 l4.8658 0 l-2.4148 -6.332 z M29.96 18.9262 c-1.4724 0.7772 -3.1086 1.2027 -4.5714 1.2027 c-3.627 0 -6.4918 -2.3932 -6.4918 -6.709 c0 -4.629 3.2076 -6.729 6.3538 -6.729 c2.5008 0 4.6276 1.342 4.6276 3.2296 c0 0.947 -0.5104 1.3484 -0.99658 1.3484 c-0.458 0 -0.89602 -0.333 -0.89602 -0.8834 c0 -0.7172 0.8442 -0.87442 0.8442 -1.4468 c0 -0.9544 -1.5842 -1.8874 -3.365 -1.8874 c-2.1972 0 -4.7592 1.4744 -4.7592 6.3688 c0 4.1386 2.138 6.3234 4.9904 6.3234 c0.793 0 1.6654 -0.171 2.5612 -0.51718 l0 -4.2392 c0 -0.249 -0.1848 -0.478 -0.48202 -0.478 l-1.3938 0 c-0.093008 0 -0.15781 -0.064804 -0.15781 -0.15381 c0 -0.093204 0.064804 -0.15801 0.15781 -0.15801 l3.5786 0 l0 4.729 z M41.309 16.3572 c0.089004 0 0.154 0.065234 0.154 0.15844 l0 3.4848 l-9.002 0 c-0.093008 0 -0.15781 -0.064804 -0.15781 -0.15801 c0 -0.089004 0.064804 -0.15381 0.15781 -0.15381 l0.51801 0 c0.2906 0 0.48122 -0.219 0.48122 -0.4618 l0 -11.631 c0 -0.2436 -0.1898 -0.4636 -0.48122 -0.4636 l-0.51801 0 c-0.093008 0 -0.15781 -0.064804 -0.15781 -0.15381 c0 -0.093204 0.064804 -0.15801 0.15781 -0.15801 l8.9234 0 l0 3.4848 c0 0.093204 -0.064804 0.15801 -0.15781 0.15801 c-0.089004 0 -0.15381 -0.064804 -0.15381 -0.15801 l0 -0.80961 c0 -1.38 -0.82 -2.3634 -2.46 -2.3634 l-2.9678 0 c-0.2906 0 -0.48122 0.2178 -0.48122 0.4618 l0 5.3726 l1.5878 0 c1.6304 0 1.811 -0.5676 1.811 -1.4958 l0 -0.18279 c0 -0.089004 0.069004 -0.15801 0.15801 -0.15801 s0.15801 0.069004 0.15801 0.15801 l0 3.6772 c0 0.089004 -0.069004 0.15801 -0.15801 0.15801 s-0.15801 -0.064804 -0.15801 -0.17041 l0 -0.19859 c0 -0.8918 -0.1724 -1.4676 -1.811 -1.4676 l-1.5878 0 l0 5.9386 c0 0.2444 0.1898 0.4634 0.48122 0.4634 l3.0462 0 c1.64 0 2.46 -0.9834 2.46 -2.3634 l0 -0.80961 c0 -0.093204 0.064804 -0.15801 0.15781 -0.15801 z M54.760999999999996 6.82 c0.093204 0 0.15803 0.064454 0.15803 0.15346 c0 0.093008 -0.064804 0.15781 -0.15781 0.15781 l-0.51801 0 c-0.2972 0 -0.48202 0.229 -0.48202 0.478 l0 12.39 l-0.7918 0 l-7.8248 -11.482 l0 10.692 c0 0.249 0.1848 0.478 0.48202 0.478 l0.51801 0 c0.093204 0 0.15801 0.064804 0.15801 0.15801 c0 0.089004 -0.064804 0.15381 -0.15801 0.15381 l-2.3448 0 c-0.093008 0 -0.15781 -0.064804 -0.15781 -0.15381 c0 -0.093204 0.064804 -0.15801 0.15781 -0.15801 l0.51801 0 c0.2972 0 0.48202 -0.229 0.48202 -0.478 l0 -11.601 c0 -0.249 -0.1848 -0.478 -0.48202 -0.478 l-0.51801 0 c-0.093008 0 -0.15781 -0.064804 -0.15781 -0.15781 c0 -0.089004 0.064804 -0.15381 0.15781 -0.15381 l2.1806 0 l7.4358 10.908 l0 -10.118 c0 -0.249 -0.1848 -0.478 -0.48202 -0.478 l-0.51801 0 c-0.093204 0 -0.15801 -0.064804 -0.15801 -0.15781 c0 -0.089004 0.064804 -0.15381 0.15801 -0.15381 l2.3448 0 z M66.41099999999999 8.939 c0 -0.8118 -1.2506 -1.888 -3.4436 -1.888 c-2.578 0 -4.5214 1.8076 -4.5214 6.369 c0 3.8214 1.5352 6.2442 4.5462 6.2442 c2.1696 0 3.6558 -1.433 4.0826 -2.3992 c0.06961 -0.13439 0.13021 -0.1626 0.19502 -0.1626 c0.1048 0 0.16961 0.0808 0.15381 0.18561 c-0.1268 0.442 -0.5606 1.0592 -1.2254 1.586 c-0.78 0.6668 -1.9428 1.255 -3.4504 1.255 c-3.9124 0 -6.111 -2.8532 -6.111 -6.709 c0 -4.3752 2.6524 -6.729 6.0682 -6.729 c2.9924 0 4.7544 1.6118 4.7544 3.2298 c0 0.947 -0.5104 1.3484 -0.99658 1.3484 c-0.458 0 -0.89602 -0.333 -0.89602 -0.8834 c0 -0.7172 0.8442 -0.87442 0.8442 -1.4468 z M79.65299999999999 6.82 c0.089004 0 0.15338 0.064804 0.15338 0.15381 c0 0.093008 -0.064804 0.15781 -0.15381 0.15781 l-0.4152 0 c-0.309 0 -0.5746 0.169 -0.7112 0.4656 l-3.378 6.5714 l0 5.0416 c0 0.249 0.1848 0.478 0.48202 0.478 l0.51801 0 c0.093008 0 0.15781 0.064804 0.15781 0.15381 c0 0.093204 -0.064804 0.15801 -0.15781 0.15801 l-3.7028 0 c-0.093008 0 -0.15781 -0.064804 -0.15781 -0.15801 c0 -0.089004 0.064804 -0.15381 0.15801 -0.15381 l0.51801 0 c0.2972 0 0.48202 -0.229 0.48202 -0.478 l0 -4.6724 l-3.6242 -6.9408 c-0.1366 -0.249 -0.3048 -0.4656 -0.7248 -0.4656 l-0.32 0 c-0.093204 0 -0.15801 -0.064804 -0.15801 -0.15781 c0 -0.089004 0.064804 -0.15381 0.15801 -0.15381 l3.84 0 c0.089004 0 0.15381 0.064804 0.15381 0.15381 c0 0.093008 -0.064804 0.15781 -0.15381 0.15781 l-0.53721 0 c-0.3426 0 -0.422 0.2192 -0.2938 0.4656 l3.1638 6.2382 l3.1798 -6.2382 c0.11699 -0.2248 0.019395 -0.4654 -0.353 -0.4654 l-0.42619 0 c-0.093008 0 -0.15781 -0.064804 -0.15781 -0.15781 c0 -0.089004 0.064804 -0.15381 0.15801 -0.15381 l2.3028 0 z"></path></g>
			</g>
		</svg>
	